# Made using Asset Forge (www.assetforge.io) version 1.2.1 

mtllib Propellor.mtl 

g detail_propeller_11

v -0.03557985 0.5660993 0.08589736
v -0.0249059 0.6360994 0.06012817
v 0.03557985 0.5660993 0.08589736
v 0.0249059 0.6360994 0.06012817
v -0.0249059 0.6360993 -0.06012812
v -0.06012816 0.6360994 -0.02490586
v -0.03557985 0.5660993 -0.08589733
v -0.08589736 0.5660993 -0.03557983
v 0.06012816 0.6360994 0.02490593
v 0.08589736 0.5660993 0.03557986
v -0.06012816 0.6360994 0.02490593
v 0.06012816 0.6360994 -0.02490586
v 0.0249059 0.6360993 -0.06012812
v 0.03557985 0.5660993 -0.08589733
v 0.08589736 0.5660993 -0.03557983
v -0.08589736 0.5660993 0.03557986
v -0.05623188 0.53 -0.3469359
v 0.05623188 0.53 -0.3469359
v -0.06311589 0.53 -0.4339487
v 0.06311589 0.53 -0.4339487
v -0.01954334 0.53 -0.5000001
v 0.01954334 0.53 -0.5000001
v 0.4339488 0.5660993 -0.06311587
v 0.4339488 0.53 -0.06311587
v 0.5000001 0.5660993 -0.01954332
v 0.5000001 0.53 -0.01954332
v -0.4339488 0.5660993 0.06311589
v -0.5000001 0.5660993 0.01954335
v -0.3469359 0.5660993 0.05623189
v -0.3469359 0.5660993 -0.05623186
v -0.5000001 0.5660993 -0.01954332
v -0.4339488 0.5660993 -0.06311587
v -0.01954334 0.5300001 0.5000001
v -0.01954334 0.5660994 0.5000001
v 0.01954334 0.5300001 0.5000001
v 0.01954334 0.5660994 0.5000001
v 0.06311589 0.5660993 -0.4339487
v 0.01954334 0.5660993 -0.5000001
v 0.05623188 0.5660993 -0.3469359
v -0.05623188 0.5660993 -0.3469359
v -0.06311589 0.5660993 -0.4339487
v -0.01954334 0.5660993 -0.5000001
v 0.06311589 0.5660994 0.4339488
v -0.06311589 0.5660994 0.4339488
v 0.05694025 0.5660994 0.3558895
v -0.05694025 0.5660994 0.3558895
v -0.05623188 0.5660994 0.3469359
v 0.4339488 0.53 0.06311591
v 0.4339488 0.5660993 0.06311589
v 0.5000001 0.53 0.01954335
v 0.5000001 0.5660993 0.01954335
v -0.4339488 0.53 0.06311591
v -0.3469359 0.53 0.05623189
v -0.5000001 0.53 0.01954335
v -0.3469359 0.53 -0.05623186
v -0.5000001 0.53 -0.01954332
v -0.4339488 0.53 -0.06311587
v 0.06311589 0.5300001 0.4339488
v -0.06311589 0.5300001 0.4339488
v 0.3469359 0.53 0.05623189
v 0.3558895 0.5660994 0.05694026
v 0.3469359 0.5660993 -0.05623186
v 0.3469359 0.53 -0.05623186
v -0.05694025 0.53 0.3558895
v 0.05694025 0.53 0.3558895
v -0.03629633 0.53 -0.0949535
v -0.09495353 0.53 -0.03629631
v 0.03629633 0.53 -0.0949535
v 0.09495353 0.53 -0.03629631
v 0.03629633 0.53 0.09495352
v 0.09495353 0.53 0.03629634
v -0.09495353 0.53 0.03629634
v -0.03629633 0.53 0.09495352
v 0.1120452 0.4 0.04282966
v 0.1120452 0.4 -0.04282966
v -0.1120452 0.4 0.04282966
v -0.1120452 0.4 -0.04282966
v -0.04282967 0.4 -0.1120451
v 0.04282967 0.4 -0.1120451
v 0.04282967 0.4 0.1120451
v -0.04282967 0.4 0.1120451
vn 0 0.3454663 0.9384314
vn -0.6635712 0.3454661 -0.6635711
vn -0.6758883 0.2938541 -0.6758882
vn -0.6862277 0.2412126 -0.6862276
vn 0.6635712 0.3454662 0.6635711
vn 0.6758883 0.2938542 0.6758882
vn 0.6862277 0.2412127 0.6862277
vn 0 1 1.192093E-07
vn 0.6635712 0.3454661 -0.6635711
vn 0.6758883 0.2938542 -0.6758882
vn 0.6862277 0.2412126 -0.6862276
vn -0.6862277 0.2412127 0.6862277
vn -0.6635712 0.3454662 0.6635711
vn -0.6758883 0.2938542 0.6758882
vn -0.9384315 0.3454662 2.980232E-08
vn 0.9384315 0.3454662 2.980232E-08
vn 0 0.345466 -0.9384314
vn 0 -1 -1.192093E-07
vn 0.5506544 -1.192093E-07 -0.8347335
vn 0 1.192093E-07 1
vn 0.8347336 -5.960464E-08 -0.5506544
vn -0.8347336 -5.960464E-08 -0.5506544
vn 0.5506544 1.192093E-07 0.8347335
vn -0.9968852 7.450581E-09 0.07886846
vn -0.9968852 7.450581E-09 0.07886844
vn 0.8347336 5.960464E-08 0.5506544
vn -0.8347336 5.960464E-08 0.5506544
vn 0.07886847 -1.192093E-07 -0.9968851
vn 0.07886846 -1.192093E-07 -0.9968851
vn 0.07886845 -1.192093E-07 -0.9968851
vn -0.07886845 1.192093E-07 0.9968851
vn -0.07886847 1.192093E-07 0.9968851
vn -0.07886845 -1.192093E-07 -0.9968851
vn -0.07886846 -1.192093E-07 -0.9968851
vn -0.07886847 -1.192093E-07 -0.9968851
vn 0.9968852 7.450581E-09 0.07886844
vn 0.9968852 7.450581E-09 0.07886846
vn 0.9968852 7.450581E-09 0.07886845
vn -0.5506544 -1.192093E-07 -0.8347335
vn 0.07886847 1.192093E-07 0.9968851
vn 0.07886846 1.192093E-07 0.9968851
vn 0.07886845 1.192093E-07 0.9968851
vn 0 -1.192093E-07 -1
vn -0.5506544 1.192093E-07 0.8347335
vn -1 0 0
vn 1 0 0
vn -0.9968852 -7.450581E-09 -0.07886846
vn -0.9968852 -7.450581E-09 -0.07886845
vn -0.9968852 -7.450581E-09 -0.07886844
vn 0.9968852 -7.450581E-09 -0.07886846
vn 0.9968852 -7.450581E-09 -0.07886845
vn 0.9968852 -7.450581E-09 -0.07886844
vn -0.6970693 0.1678955 -0.6970693
vn -0.6993513 0.1477018 -0.6993513
vn 0.6982468 0.1578069 -0.6982468
vn 0.6982468 0.1578069 -0.6982467
vn 0.6970693 0.1678956 0.6970693
vn 0.6993513 0.1477019 0.6993513
vn -0.6993513 0.1477019 0.6993513
vn -0.6970693 0.1678956 0.6970693
vn 0.991468 0.1303523 1.490116E-08
vn -0.991468 0.1303523 1.490116E-08
vn 0 0.1303521 -0.9914678
vn -0.70134 0.1274548 -0.7013399
vn -0.70134 0.1274548 -0.70134
vn 0.70134 0.1274549 0.70134
vn 0.70134 0.1274549 0.70134
vn 0 0.1303524 0.9914678
vn 0.70134 0.1274548 -0.7013399
vn 0.70134 0.1274548 -0.70134
vn -0.70134 0.1274549 0.70134
vn -0.70134 0.1274549 0.70134
vn -0.07886843 -1.192093E-07 -0.9968851
vn 0.9968852 7.450581E-09 0.07886843
vn 0.07886843 1.192093E-07 0.9968851
vn -0.9968852 -7.450581E-09 -0.07886843
vn 0.9968852 -7.450581E-09 -0.07886843
vn -0.07886843 1.192093E-07 0.9968851
vn 0.07886843 -1.192093E-07 -0.9968851
vn -0.9968852 7.450581E-09 0.07886843
vt -0.03557985 0.5660994
vt -0.0249059 0.6360994
vt 0.03557985 0.5660994
vt 0.0249059 0.6360994
vt 0.06012816 0.6360994
vt 0.03557985 0.5660993
vt 0.08589736 0.5660993
vt -0.03557987 0.5660993
vt -0.08589737 0.5660994
vt -0.02490592 0.6360994
vt -0.0249059 0.06012817
vt 0.0249059 0.06012817
vt -0.06012816 0.02490592
vt 0.06012816 0.02490592
vt -0.06012816 -0.02490587
vt 0.06012816 -0.02490587
vt 0.0249059 -0.06012812
vt -0.0249059 -0.06012812
vt -0.03557985 0.5660993
vt -0.06012816 0.6360994
vt -0.08589736 0.5660993
vt 0.03557987 0.5660993
vt 0.02490592 0.6360994
vt 0.08589737 0.5660994
vt -0.02490587 0.6360994
vt -0.03557983 0.5660993
vt 0.02490587 0.6360994
vt 0.03557983 0.5660993
vt 0.05623188 0.3469359
vt -0.05623188 0.3469359
vt 0.06311589 0.4339487
vt -0.06311589 0.4339487
vt 0.01954334 0.5000001
vt -0.01954334 0.5000001
vt -0.4339488 0.5660993
vt -0.4339488 0.53
vt -0.5000001 0.5660993
vt -0.5000001 0.53
vt 0.4339488 0.06311591
vt 0.5000001 0.01954336
vt 0.3469359 0.05623189
vt 0.3469359 -0.05623185
vt 0.5000001 -0.01954332
vt 0.4339488 -0.06311586
vt -0.01954334 0.5300001
vt -0.01954334 0.5660994
vt 0.01954334 0.5300001
vt 0.01954334 0.5660994
vt 0.4339487 0.5660993
vt 0.5000001 0.5660993
vt 0.4339487 0.53
vt 0.5000001 0.53
vt -0.05623188 -0.3469359
vt 0.05623188 -0.3469359
vt -0.06311589 -0.4339487
vt 0.06311589 -0.4339487
vt -0.01954334 -0.5000001
vt 0.01954334 -0.5000001
vt -0.5000001 0.5660993
vt -0.4339487 0.5660993
vt -0.5000001 0.53
vt -0.4339487 0.53
vt -0.06311589 0.4339487
vt 0.06311589 0.4339487
vt -0.05694025 0.3558895
vt 0.05694025 0.3558895
vt 0.05623188 0.3469359
vt 0.4339488 0.53
vt 0.4339488 0.5660994
vt 0.5000001 0.53
vt 0.5000001 0.5660993
vt 0.4339488 -0.0631159
vt 0.3469359 -0.05623189
vt 0.5000001 -0.01954335
vt 0.3469359 0.05623186
vt 0.5000001 0.01954332
vt 0.4339488 0.06311587
vt -0.3469359 0.5660993
vt -0.3469359 0.53
vt -0.5000001 0.5660994
vt -0.4339487 0.5660994
vt -0.5000001 0.5300001
vt -0.4339487 0.53
vt 0.4339487 0.5660994
vt 0.5000001 0.5660994
vt 0.4339487 0.53
vt 0.5000001 0.5300001
vt 0.4339488 0.5660993
vt 0.4339488 0.53
vt 0.3469359 0.5660993
vt 0.3469359 0.53
vt 0.3469359 0.53
vt 0.3558895 0.5660994
vt -0.3469359 0.5660993
vt -0.3469359 0.53
vt 0.3469359 0.5660993
vt 0.3469359 0.53
vt 0.5000001 0.53
vt -0.4339488 0.53
vt -0.4339488 0.5660994
vt -0.3469359 0.53
vt -0.3469359 0.5660994
vt 0.01954334 0.5660993
vt 0.01954334 0.53
vt -0.01954334 0.5660993
vt -0.01954334 0.53
vt -0.4339488 0.06311591
vt -0.3558895 0.05694026
vt -0.5000001 0.01954336
vt -0.3469359 -0.05623185
vt -0.5000001 -0.01954332
vt -0.4339488 -0.06311586
vt -0.5000001 0.53
vt -0.01954332 0.5660993
vt 0.01954336 0.5660993
vt -0.01954332 0.53
vt 0.01954335 0.53
vt -0.01954336 0.5660993
vt 0.01954332 0.5660993
vt -0.01954335 0.53
vt 0.01954332 0.53
vt 0.3558895 0.5660994
vt 0.3558895 0.53
vt -0.06311589 -0.4339487
vt 0.06311589 -0.4339487
vt -0.05694025 -0.3558895
vt 0.05694025 -0.3558895
vt -0.3558895 0.5660994
vt -0.3558895 0.53
vt -0.4339488 -0.0631159
vt -0.5000001 -0.01954335
vt -0.3469359 -0.05623189
vt -0.3469359 0.05623186
vt -0.5000001 0.01954332
vt -0.4339488 0.06311587
vt 0.03629633 0.53
vt 0.09495352 0.53
vt -0.03629633 0.53
vt -0.09495352 0.53
vt -0.09495353 0.53
vt 0.09495352 0.53
vt 0.03629633 0.53
vt -0.09495352 0.53
vt -0.03629633 0.53
vt 0.09495353 0.53
vt -0.03629634 0.53
vt 0.03629631 0.53
vt -0.04282966 0.4
vt 0.04282966 0.4
vt 0.03629634 0.53
vt -0.03629631 0.53
vt 0.04282967 0.4
vt -0.04282967 0.4
vt 0.1120452 0.4
vt 0.04282967 -0.1120451
vt -0.04282967 -0.1120451
vt 0.1120452 -0.04282966
vt -0.1120452 -0.04282966
vt 0.1120452 0.04282966
vt -0.1120452 0.04282966
vt 0.04282967 0.1120451
vt -0.04282967 0.1120451
vt -0.1120452 0.4
vt -0.08589736 0.03557987
vt -0.08589736 -0.03557983
vt -0.03557985 0.08589737
vt 0.03557985 0.08589737
vt 0.08589733 0.5660993
vt 0.09495349 0.53
vt 0.03629633 -0.09495353
vt -0.03629633 -0.09495353
vt 0.3469359 0.5660994
vt 0.08589736 0.03557987
vt 0.08589736 -0.03557983
vt -0.09495352 -0.03629634
vt -0.09495352 0.03629631
vt -0.03557985 -0.08589733
vt 0.03557985 -0.08589733
vt 0.09495352 -0.03629634
vt 0.09495352 0.03629631
vt 0.03629633 0.09495349
vt -0.03629633 0.09495349
vt -0.08589733 0.5660993
vt -0.09495349 0.53

usemtl blueSteel (Instance)
usemap blueSteel (Instance)
f 3/3/1 2/2/1 1/1/1
f 2/2/1 3/3/1 4/4/1
f 7/6/3 6/5/2 5/4/2
f 6/5/2 7/6/3 8/7/4
f 3/3/6 9/5/5 4/4/5
f 9/10/5 3/9/6 10/8/7
f 9/13/8 2/12/8 4/11/8
f 2/12/8 9/13/8 11/14/8
f 11/14/8 9/13/8 12/15/8
f 11/14/8 12/15/8 6/16/8
f 6/16/8 12/15/8 5/17/8
f 5/17/8 12/15/8 13/18/8
f 12/20/9 14/19/10 13/2/9
f 14/19/10 12/20/9 15/21/11
f 1/24/14 11/23/13 16/22/12
f 11/20/13 1/1/14 2/2/13
f 8/26/15 11/23/15 6/25/15
f 11/23/15 8/26/15 16/22/15
f 10/8/16 12/27/16 9/10/16
f 12/27/16 10/8/16 15/28/16
f 5/4/17 14/19/17 7/6/17
f 14/19/17 5/4/17 13/2/17
f 19/31/18 18/30/18 17/29/18
f 18/30/18 19/31/18 20/32/18
f 20/32/18 19/31/18 21/33/18
f 20/32/18 21/33/18 22/34/18
f 25/37/19 24/36/19 23/35/19
f 24/36/19 25/37/19 26/38/19
f 29/41/8 28/40/8 27/39/8
f 28/40/8 29/41/8 30/42/8
f 28/40/8 30/42/8 31/43/8
f 31/43/8 30/42/8 32/44/8
f 35/47/20 34/46/20 33/45/20
f 34/46/20 35/47/20 36/48/20
f 20/51/21 38/50/21 37/49/21
f 38/50/21 20/51/21 22/52/21
f 37/55/8 40/54/8 39/53/8
f 40/54/8 37/55/8 41/56/8
f 41/56/8 37/55/8 38/57/8
f 41/56/8 38/57/8 42/58/8
f 21/61/22 41/60/22 42/59/22
f 41/60/22 21/61/22 19/62/22
f 43/63/8 34/33/8 36/34/8
f 34/33/8 43/63/8 44/64/8
f 44/64/8 43/63/8 45/65/8
f 44/64/8 45/65/8 46/66/8
f 46/66/8 45/65/8 47/67/8
f 50/70/23 49/69/23 48/68/23
f 49/69/23 50/70/23 51/71/23
f 54/74/18 53/73/18 52/72/18
f 53/73/18 54/74/18 55/75/18
f 55/75/18 54/74/18 56/76/18
f 55/75/18 56/76/18 57/77/18
f 19/62/24 40/78/25 41/60/24
f 40/78/25 19/62/24 17/79/25
f 35/82/26 43/81/26 36/80/26
f 43/81/26 35/82/26 58/83/26
f 59/86/27 34/85/27 44/84/27
f 34/85/27 59/86/27 33/87/27
f 30/90/29 57/89/28 32/88/28
f 57/89/28 30/90/29 55/91/30
f 48/68/32 61/93/31 60/92/31
f 61/93/31 48/68/32 49/69/32
f 23/35/35 63/95/34 62/94/33
f 63/95/34 23/35/35 24/36/35
f 18/97/38 37/49/37 39/96/36
f 37/49/37 18/97/38 20/51/37
f 32/88/39 56/98/39 31/71/39
f 56/98/39 32/88/39 57/89/39
f 53/101/41 27/100/40 52/99/40
f 27/100/40 53/101/41 29/102/42
f 38/105/43 21/104/43 42/103/43
f 21/104/43 38/105/43 22/106/43
f 51/109/8 61/108/8 49/107/8
f 61/108/8 51/109/8 62/110/8
f 62/110/8 51/109/8 25/111/8
f 62/110/8 25/111/8 23/112/8
f 52/99/44 28/37/44 54/113/44
f 28/37/44 52/99/44 27/100/44
f 56/116/45 28/115/45 31/114/45
f 28/115/45 56/116/45 54/117/45
f 50/120/46 25/119/46 51/118/46
f 25/119/46 50/120/46 26/121/46
f 46/122/48 59/86/47 44/84/47
f 59/86/47 46/122/48 64/123/49
f 33/58/18 58/124/18 35/57/18
f 58/124/18 33/58/18 59/125/18
f 58/124/18 59/125/18 65/126/18
f 65/126/18 59/125/18 64/127/18
f 58/83/50 45/128/51 43/81/50
f 45/128/51 58/83/50 65/129/52
f 60/132/18 50/131/18 48/130/18
f 50/131/18 60/132/18 63/133/18
f 50/131/18 63/133/18 26/134/18
f 26/134/18 63/133/18 24/135/18

usemtl _defaultMat (Instance)
usemap _defaultMat (Instance)
f 66/136/53 8/7/4 7/6/3
f 8/7/4 66/136/53 67/137/54
f 15/21/11 68/138/55 14/19/10
f 68/138/55 15/21/11 69/139/56
f 70/140/57 10/8/7 3/9/6
f 10/7/7 70/142/57 71/141/58
f 73/144/60 16/21/12 72/143/59
f 16/22/12 73/145/60 1/24/14
f 74/148/61 69/147/61 71/146/61
f 69/147/61 74/148/61 75/149/61
f 67/151/62 76/149/62 72/150/62
f 76/149/62 67/151/62 77/148/62
f 66/136/63 79/153/63 78/152/63
f 79/153/63 66/136/63 68/138/63
f 78/152/64 67/137/54 66/136/53
f 67/137/54 78/152/64 77/154/65
f 80/152/66 71/141/58 70/142/57
f 71/141/58 80/152/66 74/154/67
f 80/152/68 73/144/68 81/153/68
f 73/144/68 80/152/68 70/142/68
f 76/157/18 80/156/18 81/155/18
f 80/156/18 76/157/18 74/158/18
f 74/158/18 76/157/18 77/159/18
f 74/158/18 77/159/18 75/160/18
f 75/160/18 77/159/18 78/161/18
f 75/160/18 78/161/18 79/162/18
f 75/163/69 68/138/55 69/139/56
f 68/138/55 75/163/69 79/153/70
f 81/153/72 72/143/59 76/163/71
f 72/143/59 81/153/72 73/144/60
f 62/110/8 10/164/8 61/108/8
f 10/164/8 62/110/8 15/165/8
f 62/94/33 69/139/73 15/21/73
f 69/139/73 62/94/33 63/95/34
f 3/166/8 47/67/8 45/65/8
f 47/67/8 3/166/8 1/167/8
f 68/169/74 39/96/36 14/168/74
f 39/96/36 68/169/74 18/97/38
f 72/143/75 29/102/42 53/101/41
f 29/102/42 72/143/75 16/21/75
f 73/170/18 65/126/18 64/127/18
f 65/126/18 73/170/18 70/171/18
f 73/145/49 47/172/49 1/24/76
f 47/172/49 73/145/49 46/122/48
f 46/122/48 73/145/49 64/123/49
f 16/173/8 30/42/8 29/41/8
f 30/42/8 16/173/8 8/174/8
f 71/175/18 63/133/18 60/132/18
f 63/133/18 71/175/18 69/176/18
f 65/129/52 3/9/77 45/128/51
f 3/9/77 65/129/52 70/140/77
f 71/141/78 61/93/31 10/7/78
f 61/93/31 71/141/78 60/92/31
f 39/53/8 7/178/8 14/177/8
f 7/178/8 39/53/8 40/54/8
f 55/75/18 72/179/18 53/73/18
f 72/179/18 55/75/18 67/180/18
f 17/29/18 68/182/18 66/181/18
f 68/182/18 17/29/18 18/30/18
f 8/7/79 55/91/30 30/90/29
f 55/91/30 8/7/79 67/137/79
f 40/78/25 66/184/80 7/183/80
f 66/184/80 40/78/25 17/79/25
g cylinder_vertex_12

v -0.09999999 0.4 -7.219114E-17
v -0.07071067 0.4 -0.07071067
v -0.07071067 0.4 0.07071067
v -2.165734E-16 0.4 0.09999999
v -1.443823E-16 0.4 -0.09999999
v 0.07071067 0.4 0.07071067
v 0.07071067 0.4 -0.07071067
v 0.09999999 0.4 -7.219114E-17
v -0.07071067 0 0.07071067
v -0.09999999 0 -7.219114E-17
v 0.07071067 0 0.07071067
v -2.165734E-16 0 0.09999999
v -0.07071067 0 -0.07071067
v 0.09999999 0 -7.219114E-17
v 0.07071067 0 -0.07071067
v -1.443823E-16 0 -0.09999999
vn 0 0.4 0
vn -0.1847759 0 0.07653668
vn 0.07653668 0 0.1847759
vn -0.1847759 0 -0.07653668
vn 0.1847759 0 0.07653668
vn 0.1847759 0 -0.07653668
vn -0.07653668 0 -0.1847759
vn -0.07653668 0 0.1847759
vn 0 -0.4 0
vn 0.07653668 0 -0.1847759
vt 0.09999999 -7.219114E-17
vt 0.07071067 -0.07071067
vt 0.07071067 0.07071067
vt 2.165734E-16 0.09999999
vt 1.443823E-16 -0.09999999
vt -0.07071067 0.07071067
vt -0.07071067 -0.07071067
vt -0.09999999 -7.219114E-17
vt 0.07071067 0.4
vt 0.07071067 0
vt -7.219114E-17 0.4
vt -7.219114E-17 0
vt -2.165734E-16 0
vt -2.165734E-16 0.4
vt -0.07071067 0.4
vt -0.07071067 0
vt 7.219114E-17 0
vt 7.219114E-17 0.4
vt 1.443823E-16 0
vt 1.443823E-16 0.4
vt 0.09999999 7.219114E-17
vt 1.443823E-16 0.09999999
vt 2.165734E-16 -0.09999999
vt -0.09999999 7.219114E-17

usemtl _defaultMat (Instance)
usemap _defaultMat (Instance)
f 84/187/81 83/186/81 82/185/81
f 83/186/81 84/187/81 85/188/81
f 83/186/81 85/188/81 86/189/81
f 86/189/81 85/188/81 87/190/81
f 86/189/81 87/190/81 88/191/81
f 88/191/81 87/190/81 89/192/81
f 82/195/82 90/194/82 84/193/82
f 90/194/82 82/195/82 91/196/82
f 87/193/83 93/197/83 92/194/83
f 93/197/83 87/193/83 85/198/83
f 83/199/84 91/196/84 82/195/84
f 91/196/84 83/199/84 94/200/84
f 95/201/85 87/199/85 92/200/85
f 87/199/85 95/201/85 89/202/85
f 96/194/86 89/202/86 95/201/86
f 89/202/86 96/194/86 88/193/86
f 83/193/87 97/203/87 94/194/87
f 97/203/87 83/193/87 86/204/87
f 85/198/88 90/200/88 93/197/88
f 90/200/88 85/198/88 84/199/88
f 94/187/89 90/186/89 91/205/89
f 90/186/89 94/187/89 97/206/89
f 90/186/89 97/206/89 93/207/89
f 93/207/89 97/206/89 92/191/89
f 92/191/89 97/206/89 96/190/89
f 92/191/89 96/190/89 95/208/89
f 86/204/90 96/200/90 97/203/90
f 96/200/90 86/204/90 88/199/90
